<svg width="375" height="366" viewBox="0 0 375 366" fill="none" xmlns="http://www.w3.org/2000/svg">
<rect width="375" height="667" fill="black"/>
<path d="M375 120.5C375 201.41 375 203.418 375 267C295.906 267 221 201.41 221 120.5C221 39.5903 295.906 -26 375 -26C375 33.1206 375 39.5903 375 120.5Z" fill="#F85804"/>
<path d="M146.837 206.118C187.862 244.618 188.88 245.573 221.12 275.828C186.442 312.781 120.342 316.568 79.3167 278.068C38.2913 239.568 37.8757 173.361 72.5541 136.408C102.531 164.54 105.812 167.618 146.837 206.118Z" fill="white"/>
<path d="M199.5 148C225.181 148 225.819 148 246 148C246 171.112 225.181 193 199.5 193C173.819 193 153 171.112 153 148C171.765 148 173.819 148 199.5 148Z" fill="white"/>
<circle cx="298" cy="306" r="23" fill="#979797"/>
<circle cx="298" cy="306" r="9" fill="black"/>
<circle cx="27.5" cy="30.5" r="16.5" fill="white"/>
<path d="M428 -68C428 23.6793 352.784 98 260 98C167.216 98 92 23.6793 92 -68C92 -159.679 167.216 -234 260 -234C352.784 -234 428 -159.679 428 -68Z" fill="#C4C4C4" fill-opacity="0.26"/>
<path d="M152 39C152 87.0761 114.141 126 67.5 126C20.8589 126 -17 87.0761 -17 39C-17 -9.07614 20.8589 -48 67.5 -48C114.141 -48 152 -9.07614 152 39Z" stroke="white" stroke-width="2"/>
</svg>
